<svg width="120" height="120" viewBox="0 0 120 120" fill="none" xmlns="http://www.w3.org/2000/svg">
<path d="M60 46.1446C61.17 40.5446 67.735 14.9996 86.91 14.9996C98.01 14.9996 110 22.7546 110 40.0146C110 59.5496 91.865 82.3646 60 103.16C28.135 82.3646 10 59.5496 10 40.0146C10 22.5946 21.845 14.9896 32.885 14.9896C52.5 14.9896 58.61 40.6196 60 46.1446ZM0 40.0146C0 60.3546 15.3 87.4196 60 115C104.7 87.4196 120 60.3546 120 40.0146C120 0.204616 71.76 -5.12539 60 21.3296C48.31 -4.98039 0 -0.0203848 0 40.0146Z" fill="#999999"/>
</svg>
