<svg width="120" height="120" viewBox="0 0 120 120" fill="none" xmlns="http://www.w3.org/2000/svg">
<path d="M97.615 25.875C90.63 25.875 85.94 23.405 78.175 19.32C73.915 17.09 70.495 15 65.585 15C59.21 15 56.85 18.29 52.825 22.82C42.565 14.855 35.26 18.285 28.785 21.355C25 23.145 21.09 25 15.85 25H0V64.55C5.365 65.06 10.005 65.395 16.435 66.87C12.49 74.025 16.72 82.655 24.605 83.98C26.225 87.355 29.46 89.775 33.195 90.41C34.755 93.675 37.905 96.165 41.74 96.805C44.46 102.54 51.55 105.125 57.68 102.155C59.85 103.945 62.605 105 65.515 105C69.975 105 74.2 102.585 76.24 98.315C79.98 97.53 83.03 95.075 84.56 91.835C88.1 91.1 91.18 88.815 92.8 85.405C99.73 83.995 104.26 76.77 101.24 69.515C106.72 66.815 112.345 65.715 120 64.015V24.685C115.195 24.98 102.465 25.775 97.615 25.875ZM24.02 75.8C22.135 74.38 21.9 71.66 23.505 69.75L27.415 64.955C29.02 63.035 31.85 62.63 33.74 64.06C35.64 65.485 35.86 68.19 34.26 70.115L30.35 74.895C28.745 76.82 25.915 77.215 24.02 75.8ZM32.59 82.21C30.7 80.78 30.425 78.13 32.035 76.21L35.985 71.365C37.59 69.45 40.42 69.045 42.31 70.46C44.2 71.885 44.435 74.6 42.825 76.51L38.875 81.355C37.27 83.28 34.49 83.64 32.59 82.21ZM41.16 88.63C39.27 87.205 39.03 84.49 40.645 82.565L44.545 77.785C46.15 75.865 48.98 75.45 50.875 76.875C52.76 78.305 52.995 81.01 51.39 82.93L47.485 87.72C45.88 89.645 43.04 90.045 41.16 88.63ZM59.96 89.33L56.045 94.145C54.43 96.075 51.605 96.47 49.715 95.05C47.825 93.625 47.595 90.92 49.195 89L53.12 84.18C54.73 82.27 57.56 81.86 59.445 83.29C61.345 84.7 61.575 87.415 59.96 89.33ZM68.17 96.44C67.4 97.035 66.465 97.325 65.515 97.325C64.83 97.325 64.15 97.15 63.51 96.85L65.78 94.055C66.775 92.88 67.515 91.49 67.98 90.005L68.6 90.555C70.2 92.39 69.995 95.01 68.17 96.44ZM93.01 77.09C91.17 78.51 88.39 78.165 86.81 76.36L74.33 65.655C73.295 64.77 71.975 66.335 73 67.205L85.165 77.65C86.76 79.48 86.555 82.115 84.725 83.525C82.88 84.96 80.095 84.62 78.515 82.795L68.94 74.405C67.92 73.51 66.57 75.055 67.585 75.95L76.925 84.16C78.52 85.985 78.285 88.56 76.44 89.99C74.62 91.4 71.885 91.145 70.285 89.305L68.46 87.68C69.125 81.38 64.725 76.08 58.84 75.1C57.21 71.68 53.965 69.315 50.28 68.7C48.67 65.31 45.445 62.915 41.72 62.29C38.485 55.495 29.58 53.55 23.48 58.405C19.475 57.205 15.04 56.22 10 55.54V35H15.85C23.34 35 28.735 32.445 33.065 30.39C38.5 27.815 41.11 26.62 45.97 30.16C42.77 33.34 39.5 36.14 36.135 38.105C33.19 39.82 31.875 43.095 32.775 46.445C33.955 50.815 39.085 55.235 46.61 55.235C56.515 55.235 61.285 49.255 66.285 46.405C73.75 53.585 85.935 64.625 93.635 71.535C94.965 73.345 94.745 75.745 93.01 77.09ZM110 56.005C105.44 57.08 100.995 58.35 96.465 60.635C91.04 55.74 78.82 44.67 74.47 40.32C69.51 35.365 64.5 34.89 59.005 39.335C55.055 42.515 48.915 46.57 44.15 44.83C50.975 40.045 57.11 33.08 62.61 26.85C64.175 25.08 65.245 23.89 70.12 26.4L73.51 28.175C82.135 32.715 88.86 36.31 99.17 35.85C102.27 35.725 106.605 35.495 110 35.3V56.005Z" fill="#999999"/>
</svg>
