<svg width="120" height="120" viewBox="0 0 120 120" fill="none" xmlns="http://www.w3.org/2000/svg">
<path d="M95 33.67C95 54.49 76.25 68.57 76.25 85H66.29C66.295 74.605 71.27 65.87 76.13 57.435C80.695 49.51 85 42.02 85 33.67C85 18.13 72.41 10 59.98 10C47.57 10 35 18.13 35 33.67C35 42.02 39.305 49.51 43.87 57.435C48.73 65.87 53.7 74.605 53.705 85H43.75C43.75 68.57 25 54.485 25 33.67C25 11.955 42.49 0 59.98 0C77.49 0 95 11.97 95 33.67ZM75 92.5C75 93.88 73.88 95 72.5 95H47.5C46.12 95 45 93.88 45 92.5C45 91.12 46.12 90 47.5 90H72.5C73.88 90 75 91.12 75 92.5ZM75 102.5C75 103.88 73.88 105 72.5 105H47.5C46.12 105 45 103.88 45 102.5C45 101.12 46.12 100 47.5 100H72.5C73.88 100 75 101.12 75 102.5ZM66.495 118.295C65.545 119.375 64.17 120 62.735 120H57.265C55.83 120 54.455 119.375 53.505 118.295L46.25 110H73.75L66.495 118.295ZM76.56 24.46C74.115 25.895 72.29 28.025 71.26 31.02C68.48 39.065 73.125 45.66 70.085 53.18C68.31 57.555 64.565 59.83 60.64 60.23C59.89 67.985 60.935 78.74 63.365 84.995H57.8C54.895 73.385 56.46 52.79 62.925 41.175C58.99 44.19 55.105 52.445 53.975 59.01C40.285 50.8 50.68 24.46 76.56 24.46Z" fill="#999999"/>
</svg>
